<svg xmlns="http://www.w3.org/2000/svg" viewBox="0 0 9 9" width="64" height="64">
  <rect width="9" height="9" fill="#000"/>
  <rect x="1.13" y="1.13" width="0.74" height="0.74" fill="#ffffff"/><rect x="5.13" y="1.13" width="0.74" height="0.74" fill="#ffffff"/><rect x="1.13" y="2.13" width="0.74" height="0.74" fill="#ffffff"/><rect x="5.13" y="2.13" width="0.74" height="0.74" fill="#ffffff"/><rect x="1.13" y="3.13" width="0.74" height="0.74" fill="#ffffff"/><rect x="5.13" y="3.13" width="0.74" height="0.74" fill="#ffffff"/><rect x="1.13" y="4.13" width="0.74" height="0.74" fill="#ffffff"/><rect x="2.13" y="4.13" width="0.74" height="0.74" fill="#ffffff"/><rect x="3.13" y="4.13" width="0.74" height="0.74" fill="#ffffff"/><rect x="4.13" y="4.13" width="0.74" height="0.74" fill="#ffffff"/><rect x="5.13" y="4.13" width="0.74" height="0.74" fill="#ffffff"/><rect x="1.13" y="5.13" width="0.74" height="0.74" fill="#ffffff"/><rect x="5.13" y="5.13" width="0.74" height="0.74" fill="#ffffff"/><rect x="1.13" y="6.13" width="0.74" height="0.74" fill="#ffffff"/><rect x="5.13" y="6.13" width="0.74" height="0.74" fill="#ffffff"/><rect x="1.13" y="7.13" width="0.74" height="0.74" fill="#ffffff"/><rect x="5.13" y="7.13" width="0.74" height="0.74" fill="#ffffff"/>
  <rect x="7.13" y="7.13" width="0.74" height="0.74" fill="#d4190e"/>
</svg>
